<svg width="11" height="16" viewBox="0 0 11 16" fill="none" xmlns="http://www.w3.org/2000/svg">
<path fill-rule="evenodd" clip-rule="evenodd" d="M8.25 0L10.6077 4.0837C10.8568 4.49738 11 4.98196 11 5.5C11 7.01878 9.76878 8.25 8.25 8.25C6.73122 8.25 5.5 7.01878 5.5 5.5C5.5 4.98197 5.64323 4.4974 5.89226 4.08373L8.25 0ZM9.35 10.7254C9.35 10.072 9.21596 9.44996 8.97387 8.88519C8.6334 9.00824 8.26615 9.07532 7.88323 9.07532C6.11132 9.07532 4.6749 7.6389 4.6749 5.86699C4.6749 5.26617 4.84005 4.70393 5.12743 4.22318L5.72334 3.19103L4.675 1.37525L0.664123 8.32229C0.242456 9.02455 0 9.84668 0 10.7254C0 13.3074 2.09307 15.4004 4.675 15.4004C7.25693 15.4004 9.35 13.3074 9.35 10.7254Z" fill="#7C7C7C"/>
</svg>
